<?xml version="1.0" encoding="utf-8"?>
<!-- Generator: Adobe Illustrator 27.8.1, SVG Export Plug-In . SVG Version: 6.00 Build 0)  -->
<svg version="1.1" id="Layer_2_00000143611305712613381260000002345515039210623151_"
	 xmlns="http://www.w3.org/2000/svg" xmlns:xlink="http://www.w3.org/1999/xlink" x="0px" y="0px" viewBox="0 0 150.3 135"
	 style="enable-background:new 0 0 150.3 135;" xml:space="preserve">
<style type="text/css">
	.st0{opacity:0.75;fill:#DBE24F;enable-background:new    ;}
	.st1{fill:#515251;}
</style>
<g>
	<path class="st0" d="M64.4,125.4c0.2-4.7,1.2-18,11-30.7c2.5-3.3,10.6-13.1,25-18.1c19.1-6.6,35.6-0.1,39.8,1.7
		c-2.6,4.5-8.8,13.6-20.1,19.1c-17.6,8.5-37.7,3.6-50.8-5.8c-2.8-2-17.6-13-21.1-33.6c-3.2-19,5.4-33.3,8.2-37.7
		C60.9,13,66.2,8.1,70,5.2c3.6,3.3,9.8,9.8,13.4,19.9c6.2,17.3,0.4,32.5-1.3,36.5"/>
	<path class="st1" d="M121.5,103.4c-3,2.1-6.4,4-10.5,5.4c-14.1,4.8-27.9,0.9-37.8-5.2c-6.3,7.6-8.4,15.8-9.1,20.2
		c-0.1,2.5-2.3,4.1-4.2,3.7c-1.8-0.4-3.2-2.6-2.6-4.8c0.5-2.9,1.3-6.4,2.8-10.2c1.6-4.1,4-8.6,7.5-12.9c-0.6-0.5-1.2-1-1.8-1.5
		c-3.4-3.1-14.5-14.7-15.3-32.6c-0.4-8.1,1.3-20.4,11.5-33c3.8-4.7,8.5-8.8,13.9-11.9l2.5-1.5l1.9,2.2c4.9,5.6,8.3,12.4,9.9,19.5
		c3.4,15.4-2.5,28.1-5.2,32.8c-1,2.1-3.2,3-4.6,2.4c-1.7-0.7-2.8-3.4-1.4-5.8c1.8-3.2,7.5-14.3,4.5-27.9c-1.1-5-3.4-9.9-6.5-14.1
		c-3.6,2.5-6.8,5.4-9.5,8.7c-7.1,8.7-10.4,18.2-10,28.3C58,80.4,67.5,90.3,70.4,92.9c0.6,0.5,1.2,1.1,1.8,1.6
		c4.3-4,11.9-9.4,22.6-11.7c16.8-3.6,30.4,2.9,35.5,5.8l3.4,2l-2.4,3.1C129.1,96.7,125.9,100.3,121.5,103.4L121.5,103.4z M78.2,98.6
		c8.3,4.7,19.4,7.5,30.6,3.7c6.4-2.2,11.1-5.9,14.4-9.5c-5.7-2.6-15.5-5.6-26.8-3.2C88.1,91.4,82,95.3,78.2,98.6z"/>
	<path class="st1" d="M21.6,31.4c-5.5,3.9-6.8,11.6-2.9,17.1s11.6,6.8,17.1,2.9s6.8-11.6,2.9-17.1S27.1,27.5,21.6,31.4z M34.2,37.5
		c2.2,3.1,1.4,7.3-1.6,9.5c-3.1,2.2-7.3,1.4-9.5-1.6c-2.2-3.1-1.4-7.3,1.6-9.5C27.8,33.8,32.1,34.5,34.2,37.5L34.2,37.5z"/>
</g>
</svg>
